<?xml version="1.0" encoding="utf-8"?>
<svg version="1.1" xmlns:xlink="http://www.w3.org/1999/xlink" width="71px" height="68px" xmlns="http://www.w3.org/2000/svg">
  <g transform="matrix(1 0 0 1 -6 -9 )">
    <path d="M 5.472916384538015 38.452523272970446  C 5.472916384538015 38.452523272970446  5.916666666666666 38.434782608695656  5.916666666666666 38.434782608695656  C 5.916666666666666 38.434782608695656  38.45833333333333 38.43773750636888  38.45833333333333 38.43773750636888  C 39.950527643163994 38.438011208603555  41.387514489392444 39.00176117731178  42.481414556503296 40.01604196299677  C 43.57531462361415 41.03032274868178  44.24533391402413 42.42022340194039  44.35724846522014 43.90730385158373  C 44.35724846522014 43.90730385158373  44.375 44.35078098462976  44.375 44.35078098462976  C 44.375 44.35078098462976  44.375 51.73913043478261  44.375 51.73913043478261  C 44.37204166652616 64.15652117521867  31.692625174919762 68  22.1875 68  C 12.871708542108536 68  0.5058753198633591 64.31025903121285  0.014792005221048992 52.472345435101055  C 0.014792005221048992 52.472345435101055  0 51.73913043478261  0 51.73913043478261  C 0 51.73913043478261  0 44.34782608695652  0 44.34782608695652  C 0 41.231652114702314  2.4139996021986008 38.67721891791925  5.472916384538015 38.452523272970446  Z M 65.08333333333333 38  L 45.025831302007035 38  C 45.025831302007035 38  65.08333333333333 38.434782608695656  65.08333333333333 38.434782608695656  C 68.20141672591369 38.434782608695656  70.75741513911635 40.84730536004772  70.98224846522014 43.9043489539105  C 70.98224846522014 43.9043489539105  71 44.34782608695652  71 44.34782608695652  C 71 44.34782608695652  71 50.2608695652174  71 50.2608695652174  C 70.99704166652616 61.37443496869958  60.852916469176606 65.04347826086956  53.25 65.04347826086956  C 50.120083426435784 65.04347826086956  46.56712481379509 64.40782493093741  43.46087495485942 62.89999887217646  C 45.68554154535134 60.256868455721  47.129208426612124 56.89235038342683  47.31262509028117 52.65861113175102  C 47.31262509028117 52.65861113175102  47.33333333333333 51.73913043478261  47.33333333333333 51.73913043478261  C 47.33333333333333 51.73913043478261  47.33333333333333 44.35078098462976  47.33333333333333 44.35078098462976  C 47.33333333333333 42.27530265891034  46.596710323045656 40.38904069817584  45.39858531951904 38.881214639414914  C 45.39858531951904 38.881214639414914  45.025831302007035 38.434782608695656  45.025831302007035 38.434782608695656  L 65.08333333333333 38  Z M 22.1875 0  C 24.324410473306976 0.00019416342496871564  26.440357200801373 0.42102428104566486  28.414530754089355 1.2384631167287412  C 30.38870430737734 2.0559019524118174  32.18244336297115 3.2539402609286108  33.69332993030548 4.764176161392876  C 35.20421649763981 6.274412061857141  36.40266198168199 8.067269615505053  37.22024277846019 10.040382799894912  C 38.03782357523839 12.013495984284775  38.45852758026194 14.128225388734238  38.45833333333333 16.263827282449476  C 38.45813908640473 18.399429176164713  38.037051159888506 20.5140801616337  37.21911144256592 22.487044790516734  C 36.40117172524333 24.46000941939976  35.202397825817265 26.252647223679915  33.69123653570811 27.76260856960131  C 32.18007524559895 29.2725699155227  30.38612194856008 30.47028432721677  28.41179974873861 31.287364462147593  C 26.437477548917137 32.104444597078405  24.321450943748154 32.52489100748157  22.184540470441185 32.52469684766687  C 17.86885480582714 32.52430472424022  13.7300849656264 30.810578470644746  10.678711950778961 27.760519276494566  C 7.627338935931524 24.71046008234439  5.913316248368574 20.573912433955982  5.913708547751108 16.26086956521739  C 5.9141008471336445 11.947826696478803  7.628876184423765 7.811591314232868  10.680803934733074 4.762086868286133  C 13.732731685042381 1.7125824223393977  17.871814335385956 -0.0003919276108969366  22.1875 0  Z M 54.72916666666667 5.91304347826087  C 56.47738902519147 5.913043441442396  58.208495872716114 6.257170811943386  59.82364273071289 6.925776854805324  C 61.43878958870967 7.594382897667263  62.90634463354945 8.57437353030495  64.14252456029256 9.809796457705291  C 65.37870448703568 11.045219385105634  66.35929556004703 12.511879972789597  67.02831133206685 14.126037763512652  C 67.69732710408668 15.740195554235708  68.04166666666667 17.4702395045239  68.04166666666667 19.217391304347828  C 68.04166666666667 20.964543104171756  67.69732710408668 22.694587054459944  67.02831133206685 24.308744845183003  C 66.35929556004703 25.922902635906055  65.37870448703568 27.3895618138106  64.14252456029256 28.62498474121094  C 62.90634463354945 29.86040766861128  61.43878958870967 30.840401120807815  59.82364273071289 31.509007163669754  C 58.208495872716114 32.17761320653169  56.47738902519147 32.521739167253266  54.72916666666667 32.52173913043478  C 51.19847223659356 32.52173905607652  47.81238672633965 31.12003386538962  45.31580877304077 28.62498474121094  C 42.81923081974189 26.12993561703226  41.41666666666667 22.745923643526826  41.41666666666667 19.217391304347828  C 41.41666666666667 15.688858965168832  42.81923081974189 12.30484558188397  45.31580877304077 9.809796457705291  C 47.81238672633965 7.314747333526612  51.19847223659356 5.913043552619129  54.72916666666667 5.91304347826087  Z " fill-rule="nonzero" fill="#000000" stroke="none" transform="matrix(1 0 0 1 6 9 )" />
  </g>
</svg>